<?xml version="1.0" encoding="UTF-8" standalone="no"?>
<svg
   width="512"
   height="512"
   viewBox="0 0 64 64"
   aria-hidden="true"
   role="img"
   preserveAspectRatio="xMidYMid meet"
   version="1.1"
   id="svg14"
   sodipodi:docname="mocha.svg"
   inkscape:version="1.4.3 (0d15f75, 2025-12-25)"
   xmlns:inkscape="http://www.inkscape.org/namespaces/inkscape"
   xmlns:sodipodi="http://sodipodi.sourceforge.net/DTD/sodipodi-0.dtd"
   xmlns="http://www.w3.org/2000/svg"
   xmlns:svg="http://www.w3.org/2000/svg">
  <defs
     id="defs14" />
  <sodipodi:namedview
     id="namedview14"
     pagecolor="#ffffff"
     bordercolor="#000000"
     borderopacity="0.25"
     inkscape:showpageshadow="2"
     inkscape:pageopacity="0.0"
     inkscape:pagecheckerboard="0"
     inkscape:deskcolor="#d1d1d1"
     showgrid="false"
     inkscape:zoom="1.3613281"
     inkscape:cx="255.63271"
     inkscape:cy="256"
     inkscape:window-width="1512"
     inkscape:window-height="916"
     inkscape:window-x="0"
     inkscape:window-y="38"
     inkscape:window-maximized="0"
     inkscape:current-layer="svg14" />
  <path
     d="M4.5 2.2c-3.5 2.2-3.4 25.5.8 33l26.1-16c-4-7.1-23.6-19-26.9-17"
     fill="#83644c"
     id="path1"
     style="fill:#2d1d14;fill-opacity:1" />
  <path
     d="M9.5 11.3c-1.5.9-2.2 16.2.4 21l16.7-10.2c-2.4-4.6-15.7-11.6-17.1-10.8"
     fill="#625550"
     id="path2"
     style="fill:#453930;fill-opacity:1" />
  <path
     d="m 59.5,2.2 c 3.5,2.2 3.4,25.5 -0.7,33 l -26.1,-16 c 3.9,-7.1 23.5,-19 26.8,-17"
     fill="#83644c"
     id="path3"
     style="mix-blend-mode:normal;opacity:1;fill:#2d1d14;fill-opacity:1" />
  <path
     d="M54.5 11.3c1.5.9 2.2 16.2-.4 21L37.3 22.1c2.5-4.6 15.8-11.6 17.2-10.8"
     fill="#625550"
     id="path4"
     style="fill:#453930;fill-opacity:1" />
  <path
     d="M31.8 13.1C4.7 13.1 2.2 32.5 2.2 43.5C2.2 48 15.4 62 31.8 62c16.4 0 29.6-14 29.6-18.5c0-11-2.5-30.4-29.6-30.4"
     fill="#83644c"
     id="path5" />
  <path
     d="M24.2 38.7s-3.1 4.8-8.8 3.3c-5.7-1.5-6-7.2-6-7.2s3.1-4.8 8.8-3.3c5.8 1.5 6 7.2 6 7.2"
     fill="#9db9be"
     id="path6" />
  <path
     d="M23.6 36.2s-2.7 3-6.5 3c-4.1 0-6.5-5.9-6.5-5.9s2.7-3.1 7.6-1.9c4.5 1.2 5.4 4.8 5.4 4.8"
     fill="#617a7e"
     id="path7" />
  <path
     d="M19.4 36.1c0 6.6-3.2 6.6-3.2 0c.1-6.6 3.2-6.6 3.2 0"
     fill="#000000"
     id="path8" />
  <path
     d="M39.4 38.7s3.1 4.8 8.8 3.3c5.7-1.5 6-7.2 6-7.2s-3.1-4.8-8.8-3.3c-5.8 1.5-6 7.2-6 7.2"
     fill="#9db9be"
     id="path9" />
  <path
     d="M39.9 36.2s2.7 3 6.5 3c4.1 0 6.5-5.9 6.5-5.9s-2.7-3.1-7.6-1.9c-4.5 1.2-5.4 4.8-5.4 4.8"
     fill="#617a7e"
     id="path10" />
  <path
     d="M44.1 36.1c0 6.6 3.2 6.6 3.2 0s-3.2-6.6-3.2 0"
     fill="#000000"
     id="path11" />
  <path
     d="m 40.4,44 c -2.6,-2 -5.4,-8.7 -8.6,-8.7 -3.2,0 -6.1,6.7 -8.7,8.7 -4.1,3.2 -15,6.8 -15,6.8 0,0 11.6,10.2 23.6,10.2 12,0 23.6,-10.2 23.6,-10.2 0.1,0 -10.8,-3.6 -14.9,-6.8"
     fill="#ffffff"
     id="path12"
     style="opacity:1;mix-blend-mode:normal;fill:#33251c;fill-opacity:1" />
  <ellipse
     cx="31.799999"
     cy="54.5"
     rx="1.7"
     ry="2.5"
     fill="#ff94a4"
     id="ellipse12"
     style="display:none" />
  <path
     d="M40.2 53.1c-1 .6-2.1.8-3.1.8c-1.1-.1-2.1-.4-2.9-1.1c-.8-.6-1.4-1.5-1.6-2.6l-.8-4.5l-.8 4.5c-.2 1-.8 1.9-1.6 2.6c-.8.7-1.9 1-2.9 1.1c-1.1 0-2.2-.2-3.1-.8c-1-.6-1.8-1.5-2.2-2.7c.1 1.3.7 2.5 1.7 3.4c1 .9 2.3 1.4 3.5 1.4c1.4.1 2.7-.3 3.8-1.1c.6-.4 1.1-1 1.5-1.6c.4.6.9 1.2 1.5 1.6c1.1.8 2.5 1.2 3.8 1.1c1.3-.1 2.6-.6 3.6-1.4c1-.9 1.7-2.1 1.7-3.4c-.3 1.1-1.1 2.1-2.1 2.7"
     fill="#83644c"
     id="path13"
     style="fill:#7d6f62;fill-opacity:1" />
  <path
     d="M35.8 44.8c-.8-1-3.3-1.1-4-1.1c-.7 0-3.2.1-4 1.1c-.6.7-.1 2.5 1.4 4c1 1 1.9 1.3 2.6 1.3c.7 0 1.7-.3 2.6-1.3c1.5-1.6 2-3.3 1.4-4"
     fill="#000000"
     id="path14" />
</svg>
